# Blender 3.3.0
# www.blender.org
mtllib mm.mtl
o 平面
v 1.000000 0.000000 -1.000000
v -1.000000 0.000000 -1.000000
v 1.000000 0.000000 1.000000
v -1.000000 0.000000 1.000000
v -1.437577 0.000000 -1.000000
v -3.437577 0.000000 -1.000000
v -1.437577 0.000000 1.000000
v -3.437577 0.000000 1.000000
vn -0.0000 1.0000 -0.0000
vt 0.000000 0.000000
vt 1.000000 0.000000
vt 0.000000 1.000000
vt 1.000000 1.000000
vt 0.000000 0.000000
vt 1.000000 0.000000
vt 0.000000 1.000000
vt 1.000000 1.000000
s 0
usemtl マテリアル
f 1/1/1 2/2/1 4/4/1 3/3/1
usemtl マテリアル.001
f 5/5/1 6/6/1 8/8/1 7/7/1
